<svg width="180" height="63" fill="none" xmlns="http://www.w3.org/2000/svg"><path d="M33.472 29.249c-.607-3.176-4.882-4.925-9.127-2.68l1.095 3.627 1.725 5.369.78 2.44c3.172-1.981 6.375-4.363 5.527-8.763v.007Zm-4.215 4.88a405.256 405.256 0 0 0-1.477-4.632l-.443-1.48a4.16 4.16 0 0 1 2.476.241c.397.19 1.095.612 1.245 1.428.352 1.821-.278 3.125-1.8 4.43v.014Zm68.31-9.921a5.843 5.843 0 0 0-2.03-1.18 5.965 5.965 0 0 0-4.62.343 5.771 5.771 0 0 0-1.82 1.467 5.58 5.58 0 0 0-1.069 2.05 5.484 5.484 0 0 0-.136 2.295c.117.766.395 1.5.818 2.157A5.713 5.713 0 0 0 90.345 33l7.635-8.399a7.78 7.78 0 0 0-.413-.393Zm-7.207 5.915a3.555 3.555 0 0 1 .465-4.148 3.77 3.77 0 0 1 1.923-1.139 3.854 3.854 0 0 1 2.247.137l-4.635 5.15Zm56.633 1.64c.069.248.102.506.097.764-.075 1.566-1.597 2.783-3.405 2.696-1.807-.059-3.225-1.392-3.15-2.95.053-1.48 1.402-2.638 3.067-2.71a5.473 5.473 0 0 0-.99-.125c-3.037-.123-5.512 1.967-5.61 4.56-.127 2.769 2.168 5.042 5.145 5.166 3.045.109 5.513-1.982 5.625-4.743a4.45 4.45 0 0 0-.772-2.659h-.007Zm-91.905 3.175c0 1.574-1.478 2.842-3.285 2.842-1.816 0-3.285-1.26-3.285-2.842 0-1.471 1.297-2.68 2.954-2.826a5.683 5.683 0 0 0-.99-.087c-3.03 0-5.422 2.185-5.422 4.778 0 2.783 2.4 4.954 5.37 4.954 3.038 0 5.422-2.17 5.422-4.954a4.324 4.324 0 0 0-.892-2.608c.075.219.127.474.127.743Zm110.76-15.917-1.35 5.383-1.245-5.973-16.635-3.548.12 8.982 2.505.547-.18 1.624-.075-.05c-3.105-1.589-6.953-1.75-10.575-.423a14.046 14.046 0 0 0-3.376 1.763l-2.512-15.386h-11.063l-.299 1.777h-11.648l-1.328 7.905-.975-1.159a14.828 14.828 0 0 0-5.107-3.9 15.258 15.258 0 0 0-6.33-1.418l9.885-5.165L98.775 0 86.302 13.936l2.153 2.55A16.494 16.494 0 0 0 83.4 19.61l-10.68-9.208-3.727 6.942.142-6.673L52.44 15.86l.428 8.713 2.842-.714.42 4.407c-3.248-1.405-7.155-1.384-10.77.102a16.03 16.03 0 0 0-2.992 1.669 12.018 12.018 0 0 0-.578-7.708c-1.25-2.777-3.402-5.08-6.127-6.556a14.964 14.964 0 0 0-6.488-2.244c-5.775-.983-12.72.022-19.545 2.856a48.066 48.066 0 0 0-6.96 3.518L0 21.55l1.613 2.644 5.002 8.21s1.53 2.52 1.537 2.514l2.708-1.29.375-.167L23.67 60.414 24.87 63l2.775-.86 6.72-2.098 2.955-.91-.78-2.914-3.57-13.324a31.06 31.06 0 0 0 2.873-2.339 11.676 11.676 0 0 0 .352 4.75c.93 3.227 3.12 5.777 6.135 7.183 3.263 1.53 7.238 1.53 10.92.014a15.602 15.602 0 0 0 4.883-3.198l.51 5.304 11.775-1.683-.016-10.25 24.615 11.802V43.039a25.533 25.533 0 0 0 10.103-3.176l-1.035 6.141 13.275 2.033.727-4.64 3.458 6.22 2.123-3.97.78 6.52 15.037 2.565-.795-4.91a13.973 13.973 0 0 0 7.785-1.443l-.6 5.23 10.02 1.378.075 3.984 10.425 3.191L180 22.357l-14.152-3.336Zm-58.793 5.9.69-.706-.84 5.027-2.167-1.909 2.317-2.411ZM98.227 4.43l3.653 4.816-10.425 5.019-.727-1.064 7.5-8.77ZM29.213 41.517l4.163 15.502-6.735 2.09-13.808-29.955c-.75.386-2.13 1.02-3.412 1.625l-4.995-8.203c1.995-1.231 4.17-2.324 6.487-3.278 6.51-2.688 12.728-3.497 17.7-2.637 1.748.196 3.608.692 5.25 1.748 2.235 1.224 3.938 2.958 4.928 5.18 2.4 5.39-1.612 13.163-9.57 17.928h-.008Zm30.945-2.754c-.074 2.317-.952 4.619-2.407 6.578a13.41 13.41 0 0 1-5.617 4.408c-5.843 2.404-11.678 0-13.23-5.391-1.523-5.201 1.995-11.401 7.65-13.769 3.622-1.471 7.245-1.129 9.84.583a8.27 8.27 0 0 1 3.397 4.64c.279.962.403 1.96.367 2.958v-.007Zm31.77 10.957L67.522 37.853l.045 12.435-6.322.838-.442-5.122c1.95-3.249 2.662-7.08 1.65-10.592a11.053 11.053 0 0 0-3-4.954l-.908-10.439-2.828.714-.127-2.637 10.14-2.943.623 10.17 7.477-10.2 7.305 6.754-10.215 10.46 9.6 3.694c1.065 1.967 2.7 3.643 4.755 4.881 1.98 1.188 4.26 1.894 6.667 2.12v6.688h-.014ZM79.252 32.527l-3.404-1.267 3.172-2.987a13.902 13.902 0 0 0 .225 4.254h.007Zm26.566 3.11c-2.34 1.888-5.026 3.111-8.543 3.935-.745.174-1.502.298-2.265.371-5.603.532-10.305-1.967-12.09-6.017-.22-.491-.394-1-.517-1.523-.826-3.409-.12-6.461 1.612-8.85.507-.7 1.099-1.34 1.763-1.902a14.18 14.18 0 0 1 6.09-3.009c5.34-1.246 10.042.335 12.922 3.766l-10.163 10.52c.87.07 1.747-.011 2.588-.24 2.422-.576 3.78-1.822 4.972-3.177l4.066 3.54 1.23 1.093a22.449 22.449 0 0 1-1.665 1.494Zm21.577 14.039L125.19 35.44l-3.135 7.853-4.687-9.82h-.053L115.47 44.84l-7.808-1.312 1.095-6.337c.296-.272.586-.549.871-.831l2.535-2.535-2.468-2.142 2.625-15.101h7.875l1.965 10.46 2.205-12.114h5.64l2.34 14.76c-2.97 3.285-4.425 7.721-3.42 11.764a10.652 10.652 0 0 0 2.307 4.53 11.065 11.065 0 0 0 4.181 3.01l.3 1.916-8.318-1.231Zm19.462-4.64a12.418 12.418 0 0 1-2.827 1.456c-1.839.716-3.849.91-5.798.561a8.777 8.777 0 0 1-3.359-1.384 8.134 8.134 0 0 1-3.226-4.771c-.6-2.448-.052-5.07 1.305-7.373a13.553 13.553 0 0 1 2.58-3.081 12.729 12.729 0 0 1 3.953-2.368c3.443-1.253 6.84-.816 9.225.845a7.858 7.858 0 0 1 3.165 4.611c.735 2.958-.135 6.105-2.055 8.648a12.942 12.942 0 0 1-2.963 2.855Zm17.573 13.41-5.775-1.667-.495-20.675-2.91 15.954-6.3-.983.465-4.59c4.103-3.38 6.285-8.705 5.092-13.52a10.549 10.549 0 0 0-3.254-5.42l.532-5.413-2.377-.62.15-2.884 10.859 2.112 3.653 16.814 3.742-15.073 8.251 1.778-11.633 34.188Z" fill="#FFCB05"/></svg>