<svg width="176" height="176" fill="none" xmlns="http://www.w3.org/2000/svg"><path d="M59.2 81.12h-4.56V87h-6.32v-5.88H33.24v-4.36L46.44 59h6.8L41 75.84h7.52V70.6h6.12v5.24h4.56v5.28ZM143.2 81.12h-4.56V87h-6.32v-5.88h-15.08v-4.36L130.44 59h6.8L125 75.84h7.52V70.6h6.12v5.24h4.56v5.28Z" fill="#000"/><path d="M87.982 92.495c10.776 0 19.513-8.737 19.513-19.513 0-10.777-8.737-19.513-19.513-19.513-10.777 0-19.513 8.736-19.513 19.513 0 10.776 8.736 19.513 19.513 19.513Z" fill="#040403"/><path d="M106.264 72.825c0 10.097-8.185 18.283-18.282 18.283s-18.283-8.186-18.283-18.283" fill="#E0E4E8"/><path d="M69.7 73.138c0-10.097 8.185-18.283 18.282-18.283s18.282 8.186 18.282 18.283" fill="#E64C3C"/><path d="M106.906 68.86H69.094v8.359h37.812v-8.36Z" fill="#040404"/><path d="M88 82.67c5.34 0 9.67-4.33 9.67-9.67s-4.33-9.67-9.67-9.67-9.67 4.33-9.67 9.67 4.33 9.67 9.67 9.67Z" fill="#000"/><path d="M88 78.861a5.861 5.861 0 1 0 0-11.722 5.861 5.861 0 0 0 0 11.722Z" fill="#E0E4E8"/><path d="M88 76.986a3.986 3.986 0 1 0 0-7.972 3.986 3.986 0 0 0 0 7.972Z" fill="#000"/><path d="M88 75.814a2.815 2.815 0 1 0 0-5.629 2.815 2.815 0 0 0 0 5.63Z" fill="#E0E4E8"/><path d="M53.05 109.4V122h-2.394l-6.282-7.65V122h-2.88v-12.6h2.412l6.264 7.65v-7.65h2.88Zm7.391 12.744c-1.02 0-1.938-.21-2.754-.63a4.829 4.829 0 0 1-1.89-1.782c-.456-.756-.684-1.614-.684-2.574 0-.96.228-1.818.684-2.574a4.702 4.702 0 0 1 1.89-1.764c.816-.432 1.734-.648 2.754-.648s1.932.216 2.736.648a4.702 4.702 0 0 1 1.89 1.764c.456.756.684 1.614.684 2.574 0 .96-.228 1.818-.684 2.574a4.829 4.829 0 0 1-1.89 1.782c-.804.42-1.716.63-2.736.63Zm0-2.304c.72 0 1.308-.24 1.764-.72.468-.492.702-1.146.702-1.962 0-.816-.234-1.464-.702-1.944-.456-.492-1.044-.738-1.764-.738s-1.314.246-1.782.738c-.468.48-.702 1.128-.702 1.944 0 .816.234 1.47.702 1.962.468.48 1.062.72 1.782.72Zm13.433 1.692a3 3 0 0 1-1.026.468 5.333 5.333 0 0 1-1.26.144c-1.152 0-2.046-.294-2.682-.882-.624-.588-.936-1.452-.936-2.592v-3.978h-1.494v-2.16h1.494v-2.358h2.808v2.358h2.412v2.16h-2.412v3.942c0 .408.102.726.306.954.216.216.516.324.9.324.444 0 .822-.12 1.134-.36l.756 1.98Zm9.752-9h2.484v2.16h-2.412V122H80.89v-7.308h-1.494v-2.16h1.494v-.432c0-1.104.324-1.98.972-2.628.66-.648 1.584-.972 2.772-.972.42 0 .816.048 1.188.144.384.084.702.21.954.378l-.738 2.034a1.92 1.92 0 0 0-1.134-.342c-.852 0-1.278.468-1.278 1.404v.414Zm8.368 9.612c-1.02 0-1.938-.21-2.754-.63a4.829 4.829 0 0 1-1.89-1.782c-.456-.756-.684-1.614-.684-2.574 0-.96.228-1.818.684-2.574a4.702 4.702 0 0 1 1.89-1.764c.816-.432 1.734-.648 2.754-.648s1.932.216 2.736.648a4.702 4.702 0 0 1 1.89 1.764c.456.756.684 1.614.684 2.574 0 .96-.228 1.818-.684 2.574a4.829 4.829 0 0 1-1.89 1.782c-.804.42-1.716.63-2.736.63Zm0-2.304c.72 0 1.308-.24 1.764-.72.468-.492.702-1.146.702-1.962 0-.816-.234-1.464-.702-1.944-.456-.492-1.044-.738-1.764-.738s-1.314.246-1.782.738c-.468.48-.702 1.128-.702 1.944 0 .816.234 1.47.702 1.962.468.48 1.062.72 1.782.72Zm16.943-7.524V122h-2.664v-1.152c-.372.42-.816.744-1.332.972a4.291 4.291 0 0 1-1.674.324c-1.272 0-2.28-.366-3.024-1.098-.744-.732-1.116-1.818-1.116-3.258v-5.472h2.808v5.058c0 1.56.654 2.34 1.962 2.34.672 0 1.212-.216 1.62-.648.408-.444.612-1.098.612-1.962v-4.788h2.808Zm8.487-.144c1.2 0 2.166.36 2.898 1.08.744.72 1.116 1.788 1.116 3.204V122h-2.808v-5.112c0-.768-.168-1.338-.504-1.71-.336-.384-.822-.576-1.458-.576-.708 0-1.272.222-1.692.666-.42.432-.63 1.08-.63 1.944V122h-2.808v-9.684h2.682v1.134c.372-.408.834-.72 1.386-.936a4.717 4.717 0 0 1 1.818-.342Zm16.529-3.528V122h-2.682v-1.116c-.696.84-1.704 1.26-3.024 1.26-.912 0-1.74-.204-2.484-.612a4.399 4.399 0 0 1-1.728-1.746c-.42-.756-.63-1.632-.63-2.628 0-.996.21-1.872.63-2.628a4.399 4.399 0 0 1 1.728-1.746c.744-.408 1.572-.612 2.484-.612 1.236 0 2.202.39 2.898 1.17v-4.698h2.808Zm-5.22 11.196c.708 0 1.296-.24 1.764-.72.468-.492.702-1.146.702-1.962 0-.816-.234-1.464-.702-1.944-.468-.492-1.056-.738-1.764-.738-.72 0-1.314.246-1.782.738-.468.48-.702 1.128-.702 1.944 0 .816.234 1.47.702 1.962.468.48 1.062.72 1.782.72Z" fill="#222224"/></svg>