<svg width="32" height="32" fill="none" xmlns="http://www.w3.org/2000/svg"><path d="M16 0C7.16 0 0 7.346 0 16.406c0 7.25 4.584 13.399 10.94 15.566.8.154 1.093-.353 1.093-.79 0-.389-.013-1.421-.02-2.788-4.45.99-5.389-2.201-5.389-2.201-.728-1.894-1.78-2.4-1.78-2.4-1.45-1.017.112-.996.112-.996 1.607.114 2.45 1.69 2.45 1.69 1.427 2.508 3.746 1.784 4.66 1.364.145-1.061.557-1.784 1.014-2.195-3.553-.41-7.288-1.82-7.288-8.107 0-1.791.62-3.254 1.647-4.402-.18-.415-.72-2.083.14-4.343 0 0 1.34-.44 4.4 1.682 1.28-.365 2.64-.545 4-.554 1.36.009 2.72.19 4 .554 3.04-2.122 4.38-1.682 4.38-1.682.86 2.26.32 3.928.16 4.343 1.02 1.148 1.64 2.611 1.64 4.402 0 6.303-3.74 7.69-7.3 8.094.56.492 1.08 1.498 1.08 3.035 0 2.196-.02 3.96-.02 4.492 0 .431.28.944 1.1.78C27.42 29.798 32 23.645 32 16.406 32 7.346 24.836 0 16 0Z" fill="#FFFEFE"/></svg>