<svg width="32" height="32" fill="none" xmlns="http://www.w3.org/2000/svg"><path d="M27.263 27.27h-4.739v-7.426c0-1.77-.036-4.05-2.47-4.05-2.47 0-2.847 1.927-2.847 3.92v7.555h-4.739V12h4.552v2.081h.061c.636-1.2 2.183-2.466 4.494-2.466 4.801 0 5.689 3.16 5.689 7.273l-.001 8.381ZM7.116 9.91a2.75 2.75 0 0 1-2.75-2.753 2.752 2.752 0 1 1 2.75 2.753Zm2.376 17.36H4.74V12h4.752v15.27ZM29.633 0H2.361C1.056 0 0 1.032 0 2.305v27.39C0 30.969 1.056 32 2.361 32H29.63C30.933 32 32 30.97 32 29.695V2.305C32 1.032 30.933 0 29.63 0h.003Z" fill="#FFFEFE"/></svg>