<svg width="16" height="24" fill="none" xmlns="http://www.w3.org/2000/svg"><path d="M15.5 0H.5a.5.5 0 0 0-.5.5v23a.5.5 0 0 0 .5.5h15a.5.5 0 0 0 .5-.5V.5a.5.5 0 0 0-.5-.5ZM15 7v1h-1v12h1v1h-1v2h-1V5h-2.257c-.668 0-1.296.26-1.768.732L7.732 6.975A3.48 3.48 0 0 1 5.257 8H1V7h4.257c.668 0 1.296-.26 1.768-.732l1.243-1.243A3.48 3.48 0 0 1 10.743 4H15v1h-1v2h1ZM2 15.5v-2a.5.5 0 0 1 .854-.354l1 1a.5.5 0 0 1 0 .707l-1 1A.5.5 0 0 1 2 15.5Zm3 6a.5.5 0 0 1 .5-.5h5a.5.5 0 1 1 0 1h-5a.5.5 0 0 1-.5-.5Zm7-19a.5.5 0 1 1-1 0 .5.5 0 0 1 1 0Zm-2 0a.5.5 0 1 1-1 0 .5.5 0 0 1 1 0Zm-2 0a.5.5 0 1 1-1 0 .5.5 0 0 1 1 0ZM6 4c0 1.103-.897 2-2 2s-2-.897-2-2 .897-2 2-2 2 .897 2 2Z" fill="#FFFEFE"/></svg>