<svg width="112" height="112" fill="none" xmlns="http://www.w3.org/2000/svg"><path d="M55.949 110.585c30.175 0 54.636-24.461 54.636-54.636 0-30.175-24.461-54.636-54.636-54.636-30.175 0-54.636 24.461-54.636 54.636 0 30.175 24.461 54.636 54.636 54.636Z" fill="#040403"/><path d="M107.14 55.511c0 28.272-22.919 51.191-51.191 51.191-28.272 0-51.191-22.919-51.191-51.191" fill="#E0E4E8"/><path d="M4.758 56.386c0-28.272 22.919-51.191 51.191-51.191 28.272 0 51.191 22.919 51.191 51.191" fill="#E64C3C"/><path d="M108.938 44.406H3.062v23.407h105.876V44.406Z" fill="#040404"/><path d="M56 83.075c14.953 0 27.075-12.122 27.075-27.075S70.953 28.925 56 28.925 28.925 41.047 28.925 56 41.047 83.075 56 83.075Z" fill="#000"/><path d="M56 72.412c9.064 0 16.411-7.348 16.411-16.412S65.064 39.589 56 39.589 39.588 46.936 39.588 56 46.936 72.412 56 72.412Z" fill="#E0E4E8"/><path d="M56 67.162c6.164 0 11.162-4.998 11.162-11.162 0-6.164-4.998-11.162-11.162-11.162-6.164 0-11.162 4.998-11.162 11.162 0 6.164 4.998 11.162 11.162 11.162Z" fill="#000"/><path d="M56 63.88a7.88 7.88 0 1 0 0-15.76 7.88 7.88 0 0 0 0 15.76Z" fill="#E0E4E8"/></svg>